<mxfile host="app.diagrams.net" modified="2022-04-13T13:56:34.247Z" agent="5.0 (Windows NT 10.0; Win64; x64) AppleWebKit/537.36 (KHTML, like Gecko) Chrome/100.0.4896.75 Safari/537.36" etag="ChFNEW8QIRfBQsFFmO4n" version="17.2.4" type="github">
  <diagram id="aHGARpXHhIORG9G9zNdo" name="Page-1">
    <mxGraphModel dx="1422" dy="698" grid="1" gridSize="10" guides="1" tooltips="1" connect="1" arrows="1" fold="1" page="1" pageScale="1" pageWidth="827" pageHeight="1169" math="0" shadow="0">
      <root>
        <mxCell id="0" />
        <mxCell id="1" parent="0" />
        <mxCell id="hjx9QlgFDG5wg_hJCW_G-1" value="" style="rounded=0;whiteSpace=wrap;html=1;" vertex="1" parent="1">
          <mxGeometry y="20" width="760" height="960" as="geometry" />
        </mxCell>
        <mxCell id="hjx9QlgFDG5wg_hJCW_G-2" value="客户端A" style="rounded=0;whiteSpace=wrap;html=1;fontSize=16;" vertex="1" parent="1">
          <mxGeometry width="380" height="60" as="geometry" />
        </mxCell>
        <mxCell id="hjx9QlgFDG5wg_hJCW_G-3" value="客户端B" style="rounded=0;whiteSpace=wrap;html=1;fontSize=16;" vertex="1" parent="1">
          <mxGeometry x="380" width="380" height="60" as="geometry" />
        </mxCell>
        <mxCell id="hjx9QlgFDG5wg_hJCW_G-5" value="" style="endArrow=none;html=1;rounded=0;fontSize=16;exitX=0.5;exitY=0.1;exitDx=0;exitDy=0;exitPerimeter=0;entryX=0.5;entryY=1;entryDx=0;entryDy=0;" edge="1" parent="1">
          <mxGeometry width="50" height="50" relative="1" as="geometry">
            <mxPoint x="380" y="60" as="sourcePoint" />
            <mxPoint x="380" y="978" as="targetPoint" />
          </mxGeometry>
        </mxCell>
        <mxCell id="hjx9QlgFDG5wg_hJCW_G-23" style="edgeStyle=orthogonalEdgeStyle;rounded=0;orthogonalLoop=1;jettySize=auto;html=1;exitX=0.5;exitY=1;exitDx=0;exitDy=0;exitPerimeter=0;fontSize=16;" edge="1" parent="1" source="hjx9QlgFDG5wg_hJCW_G-6" target="hjx9QlgFDG5wg_hJCW_G-7">
          <mxGeometry relative="1" as="geometry" />
        </mxCell>
        <mxCell id="hjx9QlgFDG5wg_hJCW_G-6" value="开始呼叫" style="strokeWidth=1;html=1;shape=mxgraph.flowchart.terminator;whiteSpace=wrap;fontSize=16;" vertex="1" parent="1">
          <mxGeometry x="140" y="80" width="100" height="60" as="geometry" />
        </mxCell>
        <mxCell id="hjx9QlgFDG5wg_hJCW_G-24" style="edgeStyle=orthogonalEdgeStyle;rounded=0;orthogonalLoop=1;jettySize=auto;html=1;exitX=0.5;exitY=1;exitDx=0;exitDy=0;entryX=0.5;entryY=0;entryDx=0;entryDy=0;fontSize=16;" edge="1" parent="1" source="hjx9QlgFDG5wg_hJCW_G-7" target="hjx9QlgFDG5wg_hJCW_G-8">
          <mxGeometry relative="1" as="geometry" />
        </mxCell>
        <mxCell id="hjx9QlgFDG5wg_hJCW_G-7" value="navigator.mediaDevices.getUserMedia" style="rounded=0;whiteSpace=wrap;html=1;fontSize=16;strokeWidth=1;" vertex="1" parent="1">
          <mxGeometry x="25" y="170" width="330" height="50" as="geometry" />
        </mxCell>
        <mxCell id="hjx9QlgFDG5wg_hJCW_G-25" style="edgeStyle=orthogonalEdgeStyle;rounded=0;orthogonalLoop=1;jettySize=auto;html=1;exitX=0.5;exitY=1;exitDx=0;exitDy=0;fontSize=16;" edge="1" parent="1" source="hjx9QlgFDG5wg_hJCW_G-8" target="hjx9QlgFDG5wg_hJCW_G-9">
          <mxGeometry relative="1" as="geometry" />
        </mxCell>
        <mxCell id="hjx9QlgFDG5wg_hJCW_G-8" value="RTCPeerConnection.addTrack()" style="rounded=0;whiteSpace=wrap;html=1;fontSize=16;strokeWidth=1;" vertex="1" parent="1">
          <mxGeometry x="25" y="250" width="330" height="50" as="geometry" />
        </mxCell>
        <mxCell id="hjx9QlgFDG5wg_hJCW_G-26" style="edgeStyle=orthogonalEdgeStyle;rounded=0;orthogonalLoop=1;jettySize=auto;html=1;exitX=0.5;exitY=1;exitDx=0;exitDy=0;entryX=0.5;entryY=0;entryDx=0;entryDy=0;fontSize=16;" edge="1" parent="1" source="hjx9QlgFDG5wg_hJCW_G-9" target="hjx9QlgFDG5wg_hJCW_G-10">
          <mxGeometry relative="1" as="geometry" />
        </mxCell>
        <mxCell id="hjx9QlgFDG5wg_hJCW_G-9" value="RTCPeerConnection.createOffer()" style="rounded=0;whiteSpace=wrap;html=1;fontSize=16;strokeWidth=1;" vertex="1" parent="1">
          <mxGeometry x="25" y="330" width="330" height="50" as="geometry" />
        </mxCell>
        <mxCell id="hjx9QlgFDG5wg_hJCW_G-27" style="edgeStyle=orthogonalEdgeStyle;rounded=0;orthogonalLoop=1;jettySize=auto;html=1;exitX=1;exitY=0.5;exitDx=0;exitDy=0;fontSize=16;" edge="1" parent="1" source="hjx9QlgFDG5wg_hJCW_G-10" target="hjx9QlgFDG5wg_hJCW_G-11">
          <mxGeometry relative="1" as="geometry" />
        </mxCell>
        <mxCell id="hjx9QlgFDG5wg_hJCW_G-10" value="RTCPeerConnection.setLocalDesciption()" style="rounded=0;whiteSpace=wrap;html=1;fontSize=16;strokeWidth=1;" vertex="1" parent="1">
          <mxGeometry x="25" y="410" width="330" height="50" as="geometry" />
        </mxCell>
        <mxCell id="hjx9QlgFDG5wg_hJCW_G-28" style="edgeStyle=orthogonalEdgeStyle;rounded=0;orthogonalLoop=1;jettySize=auto;html=1;exitX=0.5;exitY=1;exitDx=0;exitDy=0;exitPerimeter=0;entryX=0.5;entryY=0;entryDx=0;entryDy=0;fontSize=16;" edge="1" parent="1" source="hjx9QlgFDG5wg_hJCW_G-11" target="hjx9QlgFDG5wg_hJCW_G-12">
          <mxGeometry relative="1" as="geometry" />
        </mxCell>
        <mxCell id="hjx9QlgFDG5wg_hJCW_G-11" value="开始呼叫" style="strokeWidth=1;html=1;shape=mxgraph.flowchart.terminator;whiteSpace=wrap;fontSize=16;" vertex="1" parent="1">
          <mxGeometry x="520" y="405" width="100" height="60" as="geometry" />
        </mxCell>
        <mxCell id="hjx9QlgFDG5wg_hJCW_G-29" style="edgeStyle=orthogonalEdgeStyle;rounded=0;orthogonalLoop=1;jettySize=auto;html=1;exitX=0.5;exitY=1;exitDx=0;exitDy=0;entryX=0.5;entryY=0;entryDx=0;entryDy=0;fontSize=16;" edge="1" parent="1" source="hjx9QlgFDG5wg_hJCW_G-12" target="hjx9QlgFDG5wg_hJCW_G-13">
          <mxGeometry relative="1" as="geometry" />
        </mxCell>
        <mxCell id="hjx9QlgFDG5wg_hJCW_G-12" value="RTCPeerConnection.setRemoteDesciption()" style="rounded=0;whiteSpace=wrap;html=1;fontSize=16;strokeWidth=1;" vertex="1" parent="1">
          <mxGeometry x="405" y="490" width="330" height="50" as="geometry" />
        </mxCell>
        <mxCell id="hjx9QlgFDG5wg_hJCW_G-30" style="edgeStyle=orthogonalEdgeStyle;rounded=0;orthogonalLoop=1;jettySize=auto;html=1;exitX=0.5;exitY=1;exitDx=0;exitDy=0;entryX=0.5;entryY=0;entryDx=0;entryDy=0;fontSize=16;" edge="1" parent="1" source="hjx9QlgFDG5wg_hJCW_G-13" target="hjx9QlgFDG5wg_hJCW_G-15">
          <mxGeometry relative="1" as="geometry" />
        </mxCell>
        <mxCell id="hjx9QlgFDG5wg_hJCW_G-13" value="navigator.mediaDevices.getUserMedia" style="rounded=0;whiteSpace=wrap;html=1;fontSize=16;strokeWidth=1;" vertex="1" parent="1">
          <mxGeometry x="405" y="570" width="330" height="50" as="geometry" />
        </mxCell>
        <mxCell id="hjx9QlgFDG5wg_hJCW_G-31" style="edgeStyle=orthogonalEdgeStyle;rounded=0;orthogonalLoop=1;jettySize=auto;html=1;exitX=0.5;exitY=1;exitDx=0;exitDy=0;fontSize=16;" edge="1" parent="1" source="hjx9QlgFDG5wg_hJCW_G-15" target="hjx9QlgFDG5wg_hJCW_G-16">
          <mxGeometry relative="1" as="geometry" />
        </mxCell>
        <mxCell id="hjx9QlgFDG5wg_hJCW_G-15" value="RTCPeerConnection.addTrack()" style="rounded=0;whiteSpace=wrap;html=1;fontSize=16;strokeWidth=1;" vertex="1" parent="1">
          <mxGeometry x="405" y="650" width="330" height="50" as="geometry" />
        </mxCell>
        <mxCell id="hjx9QlgFDG5wg_hJCW_G-32" style="edgeStyle=orthogonalEdgeStyle;rounded=0;orthogonalLoop=1;jettySize=auto;html=1;exitX=0.5;exitY=1;exitDx=0;exitDy=0;fontSize=16;" edge="1" parent="1" source="hjx9QlgFDG5wg_hJCW_G-16" target="hjx9QlgFDG5wg_hJCW_G-17">
          <mxGeometry relative="1" as="geometry" />
        </mxCell>
        <mxCell id="hjx9QlgFDG5wg_hJCW_G-16" value="RTCPeerConnection.createAnswer()" style="rounded=0;whiteSpace=wrap;html=1;fontSize=16;strokeWidth=1;" vertex="1" parent="1">
          <mxGeometry x="405" y="730" width="330" height="50" as="geometry" />
        </mxCell>
        <mxCell id="hjx9QlgFDG5wg_hJCW_G-33" style="edgeStyle=orthogonalEdgeStyle;rounded=0;orthogonalLoop=1;jettySize=auto;html=1;exitX=0;exitY=0.5;exitDx=0;exitDy=0;fontSize=16;" edge="1" parent="1" source="hjx9QlgFDG5wg_hJCW_G-17" target="hjx9QlgFDG5wg_hJCW_G-18">
          <mxGeometry relative="1" as="geometry" />
        </mxCell>
        <mxCell id="hjx9QlgFDG5wg_hJCW_G-17" value="RTCPeerConnection.setLocalDesciption()" style="rounded=0;whiteSpace=wrap;html=1;fontSize=16;strokeWidth=1;" vertex="1" parent="1">
          <mxGeometry x="405" y="810" width="330" height="50" as="geometry" />
        </mxCell>
        <mxCell id="hjx9QlgFDG5wg_hJCW_G-34" style="edgeStyle=orthogonalEdgeStyle;rounded=0;orthogonalLoop=1;jettySize=auto;html=1;exitX=0.5;exitY=1;exitDx=0;exitDy=0;exitPerimeter=0;entryX=0.5;entryY=0;entryDx=0;entryDy=0;fontSize=16;" edge="1" parent="1" source="hjx9QlgFDG5wg_hJCW_G-18" target="hjx9QlgFDG5wg_hJCW_G-19">
          <mxGeometry relative="1" as="geometry" />
        </mxCell>
        <mxCell id="hjx9QlgFDG5wg_hJCW_G-18" value="开始呼叫" style="strokeWidth=1;html=1;shape=mxgraph.flowchart.terminator;whiteSpace=wrap;fontSize=16;" vertex="1" parent="1">
          <mxGeometry x="140" y="805" width="100" height="60" as="geometry" />
        </mxCell>
        <mxCell id="hjx9QlgFDG5wg_hJCW_G-19" value="RTCPeerConnection.setRemoteDesciption()" style="rounded=0;whiteSpace=wrap;html=1;fontSize=16;strokeWidth=1;" vertex="1" parent="1">
          <mxGeometry x="25" y="890" width="330" height="50" as="geometry" />
        </mxCell>
      </root>
    </mxGraphModel>
  </diagram>
</mxfile>
